<?xml version="1.0" encoding="iso-8859-1"?>
<!-- Generator: Adobe Illustrator 21.1.0, SVG Export Plug-In . SVG Version: 6.00 Build 0)  -->
<svg version="1.1" id="Layer_1" xmlns="http://www.w3.org/2000/svg" xmlns:xlink="http://www.w3.org/1999/xlink" x="0px" y="0px"
	 viewBox="0 0 100.353 100.353" style="enable-background:new 0 0 100.353 100.353;" xml:space="preserve">
<g>
	<path d="M48.318,71.348c0-0.828-0.671-1.5-1.5-1.5H12.905c0.781-14.789,13.056-26.579,28.031-26.579
		c5.41,0,10.662,1.542,15.185,4.461c0.696,0.448,1.624,0.249,2.074-0.448c0.449-0.696,0.248-1.625-0.447-2.074
		c-5.011-3.231-10.824-4.939-16.812-4.939c-17.132,0-31.071,13.942-31.071,31.079c0,0.828,0.671,1.5,1.5,1.5h35.453
		C47.646,72.848,48.318,72.176,48.318,71.348z"/>
	<path d="M40.416,37.488c9.912,0,17.976-8.065,17.976-17.979c0-9.906-8.064-17.966-17.976-17.966
		c-9.905,0-17.963,8.06-17.963,17.966C22.453,29.422,30.511,37.488,40.416,37.488z M40.416,4.543
		c8.257,0,14.976,6.714,14.976,14.966c0,8.259-6.718,14.979-14.976,14.979c-8.25,0-14.963-6.72-14.963-14.979
		C25.453,11.257,32.166,4.543,40.416,4.543z"/>
	<path d="M89.872,88.987L79.478,73.871c1.983-2.609,3.082-5.762,3.104-9.095c0.061-8.424-6.742-15.329-15.167-15.393
		c-8.393-0.04-15.33,6.754-15.392,15.178c-0.023,3.417,1.097,6.571,2.982,9.132l-10.62,14.969c-0.357,0.505-0.369,1.177-0.029,1.693
		c0.34,0.516,0.96,0.771,1.566,0.642l8.402-1.796l1.476,7.893c0.117,0.625,0.614,1.108,1.242,1.207
		c0.078,0.012,0.156,0.018,0.232,0.018c0.545,0,1.055-0.297,1.319-0.787l8.59-15.894l8.364,16.014
		c0.261,0.5,0.776,0.806,1.328,0.806c0.07,0,0.141-0.005,0.212-0.015c0.629-0.09,1.134-0.565,1.26-1.188l1.59-7.868l8.362,1.913
		c0.6,0.137,1.229-0.107,1.576-0.619C90.224,90.167,90.222,89.495,89.872,88.987z M67.313,52.383c0.026,0,0.054,0,0.08,0
		c6.771,0.051,12.238,5.602,12.188,12.372v0.001c-0.021,3.276-1.32,6.349-3.658,8.651c-2.315,2.28-5.371,3.533-8.615,3.532
		c-0.03,0-0.062,0-0.093,0c-6.768-0.046-12.237-5.59-12.192-12.358C55.072,57.838,60.579,52.383,67.313,52.383z M57.971,92.376
		l-0.979-5.24c-0.074-0.397-0.307-0.749-0.643-0.973c-0.338-0.226-0.752-0.305-1.146-0.219l-6.143,1.313l8.006-11.284
		c2.126,1.926,4.791,3.257,7.746,3.744L57.971,92.376z M79.108,86.117c-0.397-0.091-0.809-0.017-1.148,0.201
		c-0.34,0.22-0.576,0.567-0.657,0.964l-1.056,5.226l-6.662-12.754c2.892-0.431,5.58-1.677,7.8-3.633l7.835,11.395L79.108,86.117z"/>
</g>
</svg>
